<?xml version="1.0"?>

<svg id="Capa_1" xmlns="http://www.w3.org/2000/svg" version="1.1" viewBox="0 0 834.05 374.13">
  <defs><style>.st0{fill:#F7F4EF}.st1{fill:#B31217}</style></defs>
  <g>
    <path class="st1" d="M758.63,239.35l-101.2-115-13.2-15.18c-1.96-2.26-3.06-4.96-6.95-6.11l.23,94.54c.02,8.06,1.23,16.22,3.99,23.4,2.24,5.83,8.94,8.29,14.82,8.58,3.7.18,7.86.85,9.61,4.36.8,1.59-1.49,6-3.28,6l-62.49-.03-3.16-3.45c-.85-.93.47-4.65,1.78-4.99l12.82-3.38c5.02-1.32,8.76-5.66,9.39-10.59l1.44-11.22.89-9.23-.04-102.23c0-5.72-3.29-12.27-6.83-15.61-6.53-6.16-14.28-7.22-23.02-8.49-1.05-2.24-1.05-5.63-.38-8.89l41.29.27c4.11.03,7.82,5.43,10.52,8.43l99.59,110.88,12.8,13.3c.87-4.75,1.03-7.71,1.01-11.53l-.52-72.31-.84-14.61-1.21-10.38c-.65-5.59-4.22-11.26-10.18-12.43l-13.89-2.72c-1.93-.38-4.07-3.09-3.78-4.68.54-2.97,2.61-4.28,5.58-4.28l58.25-.05c1.93,0,4.2,1.28,5.1,2.69.84,1.32-.67,5.27-2.25,5.7l-10.89,2.79c-7.39,1.89-10.73,8.36-10.8,15.82l-.71,85.19-.49,60.56c-.01,1.78-.9,4.98-1.48,6.69-3.38,2.24-8.15,1.99-11.48-1.79Z"></path>
    <path class="st1" d="M165.07,211.19c28.63-3.51,42.11-20.44,55.63-44.19.83-1.46,4.66-2.07,6.62-1.71,1.79.32,4.3,2.4,5.37,4.72l-15.02,39.65c-1.02,2.69-2.82,6.09-6.04,6.77-16.17,3.45-31.93,5.86-48.47,7.68-5.42.6-11.25.42-16.59-.04l-11.06-.95c-34.42-2.95-64.32-17.83-84.1-46.57-13.67-19.87-16.73-39.79-14.82-63.4,2.55-31.48,18.66-58.95,45.94-75.16s58.12-23,89.39-20.39c9.92.83,19.08,2.16,28.78,4.08l13.62,2.69c4.81.95,6.87,4.52,7.55,9.15l5.49,37.44c-1.87,2.25-6.56,4.6-9.06,3.14-3.65-2.13-3.92-7.29-5.57-10.76-3.98-8.37-8.63-16.51-16.18-21.88-9.92-7.05-21.63-10.2-33.7-11.81-17.51-2.34-34.51,2.23-50.04,10.72-15.28,8.36-26.19,21.99-32.68,38.08-5.23,12.96-7.03,26.05-8.14,40.26-1.69,21.64,5.87,43.49,18.88,60.83,17.59,23.44,44.82,35.25,74.19,31.66Z"></path>
    <path class="st1" d="M408.85,191.05c-10.65-12.64-20.27-25.04-29.84-38.45-.95-1.34-2.05-4.3-1.87-5.68.69-5.21,21.79-10.57,22.14-33.29.21-13.59-7.29-25.22-20.66-28.84-4.92-1.33-10.81-2.76-16.15-2.8l-53.47-.32c-2.15-.01-5.28,2.02-4.87,3.56.85,3.14,3.97,4.12,6.44,4.21,4.98.18,9.18,3.78,9.2,9.02l.1,60.63-.25,27.05c-.06,6.36-6.72,10.22-12.36,10.82-1.88.2-4.38,3.1-3.51,4.4,2.6,3.85,8.01,2.22,11.64,2.47,9.42.66,17.83.25,27.38-.08l10.02-.34c.77-.03,2.95-2.14,3.22-2.75-3.93-6.19-17.07-2.13-17.03-14.36l.1-32.87c6.1-3.21,15.7-2.38,19.93,3.71l24.65,35.48c9.54,13.74,38.11,15.54,37.26,9.61-.71-4.94-7.32-5.56-12.06-11.19ZM351.45,143.96l-8.84.38c-2,.09-4.46-3.17-4.45-5.26l.09-41.67c0-2.67,1.97-6.73,4.4-7.34,9.21-2.32,18.84-.87,26.39,4.3,11.09,7.58,13.15,29.15,4.02,39.84-5.22,6.11-12.72,9.37-21.61,9.76Z"></path>
    <path class="st1" d="M514.12,51.87l-10.56-2.06c-2.74-.53-5.15-1.46-6.77-3.61-1.26-1.68-1.62-5.47.58-7.13l64.96.05c1.61,0,3.96,3.12,4.52,4.51s-1.09,4.9-2.62,5.07c-7.26.78-13.97,1.4-19.51,6.19-7.63,6.59-11.36,15.45-15.3,24.82l-61.21,145.6c-1.56,3.7-2.83,6.38-6.51,7.02-3.37.58-7.57-.46-9.15-4.31l-66.68-162.01c-4.01-9.74-12.89-16.16-23.22-16.77-3.39-.2-5.28-1.29-6.28-4.53-.64-2.07,1.49-5.71,4.5-5.71h72.41c1.91.98,2.76,4.87,2.12,6.68-1.83,5.19-8.66,2.98-15.61,5.83-4.46,1.83-5.29,6.13-3.56,10.37l33.35,81.95,19.01,45.01,14.95-34.31,31.69-80.89c3.47-8.85,5.78-20.41-1.11-21.75Z"></path>
    <path class="st1" d="M569.56,162.18c-13.36-1.3-25.5-2.25-38.43.12-2.52.46-4.31,5.26-5.04,7.34l-6.67,19.09c-.47,1.34-.29,4.77.47,5.97,2.49,3.94,9.07,2.11,12.81,6.32-.62,1.43-1.88,3.33-2.83,4.36h-37.4c-1.04,0-3.1-1.49-3.49-2.45-2.1-5.16,12.67-3.24,18.22-15.82l10.3-23.32,32.41-77.23,5.08-4.59c1.57-1.42,5.73,1.44,6.63,3.76l30.16,77.68,10.27,25.19c2.3,5.64,8.39,8.56,13.71,9.86.99.39,2.79,2.21,3.87,3.35-1.59,1.51-4.29,3.58-6,3.58h-36.63c-2.63.01-5.48-1.61-7.9-3.67,4.58-4.29,13.85-5.32,12.55-9.07l-7.19-20.79c-1.2-3.47-2.63-6.11-4.9-9.68ZM537.86,152.72l29.43-.42-15.29-40.8c-.37-.41-1.32-1.62-1.68-1.36l-1.82,1.27-14.44,37.52c.62,1.73,2.44,3.8,3.8,3.78Z"></path>
    <path class="st1" d="M268.23,114.65c-13.36-1.3-25.5-2.25-38.43.12-2.52.46-4.31,5.26-5.04,7.34l-6.67,19.09c-.47,1.34-.29,4.77.47,5.97,2.49,3.94,9.07,2.11,12.81,6.32-.62,1.43-1.88,3.33-2.83,4.36h-37.4c-1.04,0-3.1-1.49-3.49-2.45-2.1-5.16,12.67-3.24,18.22-15.82l10.3-23.32,32.41-77.23,5.08-4.59c1.57-1.42,5.73,1.44,6.63,3.76l30.16,77.68,10.27,25.19c2.3,5.64,8.39,8.56,13.71,9.86.99.39,2.79,2.21,3.87,3.35-1.59,1.51-4.29,3.58-6,3.58h-36.63c-2.63.01-5.48-1.61-7.9-3.67,4.58-4.29,13.85-5.32,12.55-9.07l-7.19-20.79c-1.2-3.47-2.63-6.11-4.9-9.68ZM236.53,105.19l29.43-.42-15.29-40.8c-.37-.41-1.32-1.62-1.68-1.36l-1.82,1.27-14.44,37.52c.62,1.73,2.44,3.8,3.8,3.78Z"></path>
  </g>
  <g>
    <path class="st0" d="M76.34,282.33v-1.3c1.9.16,4.32.24,7.27.24l8.71-.09c3.23,0,5.59.68,7.08,2.05,1.48,1.38,2.23,3.25,2.23,5.62,0,2.75-1,5.05-3,6.91-2,1.86-4.75,2.79-8.24,2.79-1.35,0-2.95-.19-4.81-.57-.01,2.29-.02,3.93-.02,4.92,0,3.73.07,5.9.22,6.5.06.25.2.44.42.57.41.23,1.79.52,4.14.86.21.03.5.09.88.18v1.3c-2.79-.16-5.4-.24-7.83-.24-2.29,0-4.64.08-7.05.24v-1.3c.57-.15,1-.24,1.28-.29,1.94-.4,3.02-.68,3.24-.86.37-.32.55-1.18.55-2.58l.07-10.67-.02-10.67v-.49c0-.94-.14-1.54-.43-1.81s-1.48-.62-3.58-1.06c-.23-.06-.6-.15-1.1-.26ZM85.6,296.13c1.56.35,2.89.53,4.01.53,2.41,0,4.27-.63,5.59-1.9,1.31-1.26,1.97-2.95,1.97-5.05s-.61-3.64-1.82-4.78c-1.21-1.15-3.07-1.72-5.57-1.72-1.1,0-2.43.12-3.99.35-.12,4.44-.18,8.63-.2,12.56Z"></path>
    <path class="st0" d="M122.06,282.33v-1.3c3.89.16,7.02.24,9.37.24,1.35,0,2.62-.01,3.79-.04,1.56-.06,2.64-.09,3.24-.09,2.87,0,5.03.68,6.48,2.03,1.44,1.37,2.16,3.21,2.16,5.53,0,1.56-.33,2.94-.98,4.13s-1.6,2.21-2.83,3.03c-.9.59-2.18,1.11-3.84,1.57l7.34,9.56c.91,1.19,1.48,1.89,1.72,2.09.37.31.85.57,1.43.79.82.32,2.21.7,4.17,1.12v1.3c-2.32-.16-4.01-.24-5.07-.24-1.22,0-2.47.08-3.75.24-.66-1.1-1.56-2.49-2.69-4.16-1.13-1.67-1.82-2.66-2.07-2.96-.15-.18-.29-.36-.42-.55l-4.85-6.66c-1.31-.03-2.63-.12-3.97-.29l.18,11.11c.03.44.16.77.4.99.35.29,1.46.61,3.31.95.26.04.67.13,1.21.26v1.3c-2.66-.16-5-.24-7.03-.24-2.17,0-4.61.08-7.3.24v-1.3l.95-.2c2.1-.4,3.29-.72,3.58-.98.29-.26.45-.72.5-1.38.03-.43.07-4.2.11-11.33l-.09-10.36c-.01-1.59-.06-2.5-.12-2.73-.07-.23-.21-.41-.43-.53-.72-.38-1.86-.7-3.42-.95-.23-.04-.59-.12-1.08-.22ZM131.29,295.82c1.53.16,2.71.24,3.55.24,2.67,0,4.65-.6,5.94-1.79,1.29-1.19,1.93-2.85,1.93-4.97,0-1.85-.57-3.32-1.71-4.39-1.14-1.07-2.8-1.61-4.97-1.61-.78,0-2.31.09-4.61.26l-.13,12.25Z"></path>
    <path class="st0" d="M181.77,294.83h5.33c2.06,0,3.27-.06,3.64-.17.37-.11.66-.33.89-.67.23-.34.51-1.31.85-2.93.04-.16.11-.41.2-.75h1.46c-.16,2.42-.24,4.29-.24,5.6s.08,3.2.24,5.55h-1.46c-.43-2.13-.69-3.32-.79-3.57-.15-.35-.4-.61-.77-.76s-1.46-.23-3.28-.23h-6.04l.11,12.96h9.24l.82-.02c1.26,0,2.06-.05,2.38-.15.56-.19,1.05-.51,1.48-.96s1.21-1.72,2.36-3.8c.12-.21.29-.51.53-.9h1.52c-.18.47-1.09,3.23-2.73,8.29-5.35-.16-10.23-.24-14.66-.24-3.09,0-6.5.08-10.23.24v-1.3l3.57-.77c.57-.16.93-.32,1.06-.48.22-.28.33-.86.33-1.74v-.4l.11-5.18c.01-1,.02-2.96.02-5.88,0-4.25-.01-7.36-.04-9.33-.03-1.98-.1-3.1-.22-3.36-.09-.18-.22-.32-.41-.43s-.86-.3-2.04-.56l-2.38-.53v-1.3c2.76.16,6.06.24,9.9.24,2.1,0,7.1-.08,14.99-.24.03,2.54.21,5.06.53,7.54h-1.54c-.59-2-1.07-3.33-1.43-3.99-.25-.46-.56-.76-.93-.9-.49-.19-1.56-.29-3.22-.29h-8.9l-.15,7.1-.07,4.34Z"></path>
    <path class="st0" d="M220.06,282.33v-1.3c2.45.16,4.32.24,5.6.24,1.45,0,3.02-.08,4.7-.24.6,1.54,1.08,2.72,1.45,3.53.48,1.09,2.4,5.21,5.74,12.37,1.42,3.04,2.86,6.01,4.31,8.91l9.41-19.81c.57-1.22,1.26-2.89,2.05-5.01,1.97.16,3.48.24,4.52.24.97,0,2.61-.08,4.92-.24v1.3c-.44.12-.77.2-.99.24-2.04.41-3.18.71-3.42.9-.38.29-.57,1.04-.57,2.23v.29l-.09,6.99c0,8.79.04,14.12.11,16,.01.4.13.69.34.88.21.19,1.47.51,3.76.95.19.03.48.1.86.2v1.3c-2.65-.16-4.97-.24-6.99-.24s-4.49.08-7.3.24v-1.3c.57-.15,1.01-.25,1.3-.31,1.79-.34,2.82-.58,3.07-.72.26-.14.43-.33.52-.58.13-.43.2-1.62.2-3.57v-19.24c-1.34,2.65-4.35,9.01-9.05,19.11-1.29,2.78-2.25,4.9-2.86,6.37h-1.26c-3.29-7.3-7.32-15.8-12.09-25.48l.29,20.54c0,1.63.13,2.56.4,2.8.26.24,1.37.52,3.33.86.22.04.56.12,1.01.22v1.3c-2.54-.16-4.6-.24-6.17-.24s-3.65.08-6.24.24v-1.3c.43-.12.74-.19.95-.22,1.94-.38,3.03-.71,3.26-.99.35-.41.54-1.42.55-3.02l.11-4.96c.07-4.53.11-8.91.11-13.16l-.02-2.69c0-1.07-.07-1.74-.2-2.02-.13-.27-.35-.47-.64-.58-.56-.22-1.81-.48-3.75-.77-.28-.04-.69-.13-1.23-.26Z"></path>
    <path class="st0" d="M297.15,281.03v1.3c-.51.12-.9.2-1.15.24-1.95.34-3.09.66-3.39.96s-.46.97-.46,2.02v.77l-.11,8.86.07,12.87c0,1.03.15,1.68.45,1.96.3.28,1.33.52,3.1.73.34.04.83.13,1.48.26v1.3c-2.37-.16-4.64-.24-6.83-.24s-4.75.08-7.45.24v-1.3c.43-.12.75-.19.97-.22,2.09-.34,3.28-.65,3.58-.94.3-.29.45-1.01.45-2.17l-.04-1.1.07-8.09c0-8.32-.02-12.92-.07-13.8-.03-.49-.19-.86-.47-1.12-.29-.26-1.39-.58-3.32-.95-.26-.06-.65-.15-1.16-.29v-1.3c3.19.16,5.69.24,7.48.24,2,0,4.28-.08,6.82-.24Z"></path>
    <path class="st0" d="M316.86,282.33v-1.3c2.73.16,5.09.24,7.08.24s4.46-.08,7.16-.24v1.3c-.46.1-.8.18-1.04.22-2.07.32-3.24.6-3.5.84-.26.24-.41.73-.44,1.48-.09,2-.13,5.76-.13,11.29,0,3.69.1,6.19.3,7.52.2,1.32.68,2.45,1.45,3.39s1.83,1.66,3.19,2.17c1.35.51,2.79.76,4.32.76,2.31,0,4.18-.48,5.61-1.43s2.38-2.23,2.84-3.82c.46-1.59.69-4.71.69-9.36,0-6.14-.05-9.76-.15-10.87-.04-.48-.18-.83-.42-1.02-.24-.2-1.34-.51-3.31-.94-.21-.04-.52-.12-.95-.22v-1.3c2.88.16,5.07.24,6.57.24,1.69,0,3.61-.08,5.77-.24v1.3c-.41.12-.72.2-.92.24-1.95.4-3.05.71-3.31.93-.26.22-.42.6-.48,1.15-.16,1.16-.25,4.58-.29,10.27-.02,4.39-.1,7.19-.24,8.38-.19,1.65-.54,2.97-1.04,3.98s-1.27,1.96-2.3,2.87-2.22,1.57-3.56,1.99c-1.76.56-3.61.84-5.53.84-2.15,0-4.06-.26-5.74-.79s-2.99-1.25-3.91-2.15c-.93-.9-1.62-1.97-2.07-3.2-.46-1.23-.68-3.01-.68-5.35l.09-10.01c0-3.72-.01-5.81-.04-6.28-.06-.72-.17-1.2-.33-1.46-.12-.21-.29-.36-.53-.46-.18-.09-1.2-.32-3.06-.68-.24-.04-.6-.13-1.08-.26Z"></path>
    <path class="st0" d="M370.67,282.33v-1.3c2.45.16,4.32.24,5.6.24,1.45,0,3.02-.08,4.7-.24.6,1.54,1.08,2.72,1.45,3.53.48,1.09,2.4,5.21,5.74,12.37,1.42,3.04,2.86,6.01,4.31,8.91l9.41-19.81c.57-1.22,1.25-2.89,2.05-5.01,1.97.16,3.48.24,4.52.24.97,0,2.61-.08,4.92-.24v1.3c-.44.12-.77.2-.99.24-2.04.41-3.18.71-3.42.9-.38.29-.57,1.04-.57,2.23v.29l-.09,6.99c0,8.79.04,14.12.11,16,.01.4.13.69.34.88.21.19,1.47.51,3.76.95.19.03.48.1.86.2v1.3c-2.64-.16-4.97-.24-6.99-.24s-4.49.08-7.3.24v-1.3c.57-.15,1.01-.25,1.3-.31,1.79-.34,2.82-.58,3.07-.72.26-.14.43-.33.52-.58.13-.43.2-1.62.2-3.57v-19.24c-1.34,2.65-4.35,9.01-9.05,19.11-1.29,2.78-2.25,4.9-2.86,6.37h-1.26c-3.29-7.3-7.32-15.8-12.09-25.48l.29,20.54c0,1.63.13,2.56.4,2.8.26.24,1.37.52,3.33.86.22.04.56.12,1.01.22v1.3c-2.54-.16-4.6-.24-6.17-.24s-3.65.08-6.24.24v-1.3c.43-.12.74-.19.95-.22,1.94-.38,3.03-.71,3.26-.99.35-.41.54-1.42.55-3.02l.11-4.96c.07-4.53.11-8.91.11-13.16l-.02-2.69c0-1.07-.07-1.74-.2-2.02-.13-.27-.35-.47-.64-.58-.56-.22-1.81-.48-3.75-.77-.28-.04-.69-.13-1.23-.26Z"></path>
    <path class="st0" d="M462.04,282.33v-1.3c2.45.16,4.32.24,5.6.24,1.45,0,3.02-.08,4.7-.24.6,1.54,1.08,2.72,1.45,3.53.48,1.09,2.4,5.21,5.74,12.37,1.42,3.04,2.86,6.01,4.31,8.91l9.41-19.81c.57-1.22,1.26-2.89,2.05-5.01,1.97.16,3.48.24,4.52.24.97,0,2.61-.08,4.92-.24v1.3c-.44.12-.77.2-.99.24-2.04.41-3.18.71-3.42.9-.38.29-.57,1.04-.57,2.23v.29l-.09,6.99c0,8.79.04,14.12.11,16,.01.4.13.69.34.88s1.47.51,3.76.95c.19.03.48.1.86.2v1.3c-2.65-.16-4.97-.24-6.99-.24s-4.49.08-7.3.24v-1.3c.57-.15,1.01-.25,1.3-.31,1.79-.34,2.82-.58,3.07-.72.26-.14.43-.33.52-.58.13-.43.2-1.62.2-3.57v-19.24c-1.34,2.65-4.35,9.01-9.05,19.11-1.29,2.78-2.25,4.9-2.86,6.37h-1.26c-3.29-7.3-7.32-15.8-12.09-25.48l.29,20.54c0,1.63.13,2.56.4,2.8.26.24,1.37.52,3.33.86.22.04.56.12,1.01.22v1.3c-2.54-.16-4.6-.24-6.17-.24s-3.65.08-6.24.24v-1.3c.43-.12.74-.19.95-.22,1.94-.38,3.03-.71,3.26-.99.35-.41.54-1.42.55-3.02l.11-4.96c.07-4.53.11-8.91.11-13.16l-.02-2.69c0-1.07-.07-1.74-.2-2.02-.13-.27-.35-.47-.64-.58-.56-.22-1.81-.48-3.75-.77-.28-.04-.69-.13-1.23-.26Z"></path>
    <path class="st0" d="M540.2,280.5h1.39c1.98,5.1,4.42,10.88,7.32,17.35l5.14,11.22c.24.4.49.69.77.88.19.13,1.27.49,3.24,1.06v1.3c-2.67-.16-4.64-.24-5.91-.24s-3.5.08-6.61.24v-1.3c1.78-.37,2.81-.66,3.11-.88.29-.22.44-.48.44-.77,0-.31-.15-.83-.46-1.56l-2.24-5.38c-3.12-.03-5.38-.04-6.8-.04l-6.03.04-2.32,5.58c-.38.9-.57,1.45-.57,1.68,0,.19.09.35.28.47.18.12,1.04.35,2.57.67.16.04.39.11.68.2v1.3c-2.51-.16-4.28-.24-5.31-.24-1.31,0-2.98.08-5.03.24v-1.3c1.34-.29,2.25-.62,2.75-.99.37-.28.75-.75,1.15-1.41.84-1.46,2.97-6.13,6.39-14.04l6.06-14.06ZM534.39,300.21c2.04.06,3.5.09,4.38.09.26,0,2.52-.03,6.76-.09l-5.58-13.22-5.57,13.22Z"></path>
    <path class="st0" d="M577.39,282.33v-1.3c3.89.16,7.02.24,9.37.24,1.35,0,2.62-.01,3.79-.04,1.56-.06,2.64-.09,3.24-.09,2.87,0,5.03.68,6.48,2.03,1.44,1.37,2.16,3.21,2.16,5.53,0,1.56-.33,2.94-.98,4.13s-1.6,2.21-2.83,3.03c-.9.59-2.18,1.11-3.84,1.57l7.34,9.56c.91,1.19,1.48,1.89,1.72,2.09.37.31.84.57,1.43.79.82.32,2.21.7,4.17,1.12v1.3c-2.32-.16-4.01-.24-5.07-.24-1.22,0-2.47.08-3.75.24-.66-1.1-1.56-2.49-2.69-4.16-1.13-1.67-1.82-2.66-2.07-2.96-.15-.18-.29-.36-.42-.55l-4.85-6.66c-1.31-.03-2.63-.12-3.97-.29l.18,11.11c.03.44.16.77.4.99.35.29,1.46.61,3.31.95.26.04.67.13,1.21.26v1.3c-2.66-.16-5-.24-7.03-.24-2.17,0-4.61.08-7.3.24v-1.3l.95-.2c2.1-.4,3.29-.72,3.58-.98.29-.26.45-.72.5-1.38.03-.43.07-4.2.11-11.33l-.09-10.36c-.01-1.59-.05-2.5-.12-2.73-.07-.23-.21-.41-.43-.53-.72-.38-1.86-.7-3.42-.95-.24-.04-.59-.12-1.08-.22ZM586.62,295.82c1.53.16,2.71.24,3.55.24,2.67,0,4.65-.6,5.94-1.79,1.29-1.19,1.93-2.85,1.93-4.97,0-1.85-.57-3.32-1.71-4.39-1.14-1.07-2.8-1.61-4.97-1.61-.78,0-2.31.09-4.61.26l-.13,12.25Z"></path>
    <path class="st0" d="M627.78,282.33v-1.3c3.13.16,5.41.24,6.82.24.51,0,.98,0,1.39-.02l6.09-.22v1.3l-.95.2c-2.05.4-3.18.67-3.4.8-.21.14-.37.35-.45.63-.06.18-.11,1.68-.15,4.5l-.09,7.85c3.77-3.06,7.58-6.58,11.44-10.56.97-1,1.46-1.71,1.46-2.14,0-.19-.08-.35-.24-.48-.24-.16-1.01-.38-2.31-.66-.12-.03-.29-.07-.51-.13v-1.3c2.07.16,3.87.24,5.4.24,1.16,0,3.37-.08,6.61-.24v1.3c-2.03.49-3.25.82-3.66.99s-.77.38-1.08.62l-3.88,3.64-6,5.47-2.71,2.41c1.43,1.51,3.81,3.84,7.14,6.98l7.08,6.49c.46.37.95.66,1.48.87.53.21,2.15.61,4.85,1.2v1.3c-3.36-.16-5.69-.24-7-.24-1.1,0-3.65.08-7.66.24v-1.3c1.38-.31,2.17-.54,2.37-.69.2-.15.3-.31.3-.49,0-.21-.14-.47-.42-.78-1.07-1.23-4.21-4.31-9.41-9.24l-3.24-3.12.04,11.31c0,.87.06,1.4.18,1.59.13.24.41.43.82.57.31.1,1.65.39,4.01.86v1.3c-2.5-.16-4.76-.24-6.78-.24-1.91,0-4.42.08-7.53.24v-1.3c.47-.1.82-.18,1.06-.22,2.01-.29,3.18-.59,3.5-.88.23-.21.37-.75.4-1.63.1-2.63.15-6.14.15-10.54l-.11-11.99c0-1.07-.03-1.69-.1-1.86s-.17-.3-.3-.39c-.5-.32-1.71-.65-3.64-.97-.22-.03-.54-.1-.97-.2Z"></path>
    <path class="st0" d="M689.96,294.83h5.33c2.06,0,3.27-.06,3.64-.17s.67-.33.89-.67c.23-.34.51-1.31.85-2.93.04-.16.11-.41.2-.75h1.45c-.16,2.42-.24,4.29-.24,5.6s.08,3.2.24,5.55h-1.45c-.43-2.13-.69-3.32-.79-3.57-.15-.35-.4-.61-.77-.76s-1.46-.23-3.28-.23h-6.04l.11,12.96h9.24l.82-.02c1.26,0,2.06-.05,2.38-.15.56-.19,1.05-.51,1.48-.96.43-.45,1.21-1.72,2.36-3.8.12-.21.29-.51.53-.9h1.52c-.18.47-1.09,3.23-2.73,8.29-5.35-.16-10.23-.24-14.66-.24-3.09,0-6.5.08-10.23.24v-1.3l3.57-.77c.57-.16.93-.32,1.06-.48.22-.28.33-.86.33-1.74v-.4l.11-5.18c.01-1,.02-2.96.02-5.88,0-4.25-.02-7.36-.04-9.33-.03-1.98-.1-3.1-.22-3.36-.09-.18-.22-.32-.41-.43s-.86-.3-2.04-.56l-2.38-.53v-1.3c2.76.16,6.06.24,9.9.24,2.1,0,7.1-.08,14.99-.24.03,2.54.21,5.06.53,7.54h-1.54c-.59-2-1.07-3.33-1.43-3.99-.25-.46-.56-.76-.93-.9-.49-.19-1.56-.29-3.22-.29h-8.9l-.15,7.1-.07,4.34Z"></path>
    <path class="st0" d="M730.7,289.63h-1.7c.28-2.56.53-5.42.75-8.6,6.5.16,11.14.24,13.92.24,2.3,0,6.5-.08,12.6-.24.19,3.28.41,6.14.66,8.6h-1.65c-.69-2.69-1.14-4.27-1.34-4.73s-.5-.79-.89-.99-1.37-.3-2.96-.3h-4.88c-.12,3.91-.18,8.74-.18,14.5,0,5.35.06,8.96.18,10.84.03.44.14.74.33.9.25.21,1.46.52,3.64.95.21.03.51.1.93.2v1.3c-2.91-.16-5.5-.24-7.78-.24-2.16,0-4.37.08-6.63.24v-1.3c.51-.13.9-.22,1.17-.26,2.01-.34,3.17-.62,3.48-.86.13-.12.23-.28.3-.5.07-.21.12-1.84.17-4.88.06-4.7.09-8.19.09-10.45,0-3.95-.03-7.44-.09-10.45h-5.25l-.95.02c-.84,0-1.39.09-1.65.26-.41.25-.78.78-1.1,1.59-.25.62-.63,2-1.15,4.14Z"></path>
  </g>
  <g>
    <rect class="st1" x="91.35" y="345.34" width="305.23" height="1.39"></rect>
    <rect class="st1" x="436.47" y="345.34" width="305.23" height="1.39"></rect>
    <rect class="st1" x="408.74" y="338.25" width="15.58" height="15.58" transform="translate(366.68 -193.18) rotate(45)"></rect>
  </g>
</svg>