<?xml version="1.0" encoding="UTF-8"?>
<svg id="Capa_1" xmlns="http://www.w3.org/2000/svg" version="1.1" xmlns:xlink="http://www.w3.org/1999/xlink" viewBox="0 0 507.14 117.11">
  <!-- Generator: Adobe Illustrator 30.3.0, SVG Export Plug-In . SVG Version: 2.1.3 Build 182)  -->
  <defs>
    <style>
      .st0 {
        fill: url(#Degradado_sin_nombre_6);
      }

      .st1 {
        fill: url(#Degradado_sin_nombre_5);
      }

      .st2 {
        fill: #fff;
      }

      .st3 {
        fill: url(#Degradado_sin_nombre_4);
      }

      .st4 {
        fill: url(#Degradado_sin_nombre_2);
      }

      .st5 {
        fill: url(#Degradado_sin_nombre_7);
      }

      .st6 {
        fill: url(#Degradado_sin_nombre_3);
      }

      .st7 {
        fill: url(#Degradado_sin_nombre);
      }
    </style>
    <linearGradient id="Degradado_sin_nombre" data-name="Degradado sin nombre" x1="-363.02" y1="98.19" x2="-362.06" y2="98.19" gradientTransform="translate(-6635.98 -33462.35) rotate(-82.27) scale(89.18 113.24)" gradientUnits="userSpaceOnUse">
      <stop offset="0" stop-color="#073782"/>
      <stop offset=".11" stop-color="#093b86"/>
      <stop offset=".24" stop-color="#114894"/>
      <stop offset=".37" stop-color="#1f5eab"/>
      <stop offset=".52" stop-color="#327ccc"/>
      <stop offset=".57" stop-color="#3b8adb"/>
      <stop offset="1" stop-color="#c8e1fb"/>
    </linearGradient>
    <linearGradient id="Degradado_sin_nombre_2" data-name="Degradado sin nombre 2" x1="-341.53" y1="110.59" x2="-340.57" y2="110.59" gradientTransform="translate(6672.77 -2006.33) rotate(8.06) scale(18.36 26.48) skewX(.04)" gradientUnits="userSpaceOnUse">
      <stop offset="0" stop-color="#3187d9"/>
      <stop offset=".21" stop-color="#358ada"/>
      <stop offset=".46" stop-color="#4395df"/>
      <stop offset=".73" stop-color="#5aa8e6"/>
      <stop offset="1" stop-color="#7bc2f1"/>
    </linearGradient>
    <linearGradient id="Degradado_sin_nombre_3" data-name="Degradado sin nombre 3" x1="-413.22" y1="102.93" x2="-412.26" y2="102.93" gradientTransform="translate(-2241.69 -3152.38) rotate(-111.8) scale(9.21)" gradientUnits="userSpaceOnUse">
      <stop offset="0" stop-color="#073782"/>
      <stop offset=".26" stop-color="#1d5aa8"/>
      <stop offset=".57" stop-color="#3b8adb"/>
      <stop offset="1" stop-color="#c8e1fb"/>
    </linearGradient>
    <linearGradient id="Degradado_sin_nombre_4" data-name="Degradado sin nombre 4" x1="-362.45" y1="97.82" x2="-361.49" y2="97.82" gradientTransform="translate(-6775.82 -34437.85) rotate(-77.6) scale(83.91 143.93) skewX(-12.79)" gradientUnits="userSpaceOnUse">
      <stop offset="0" stop-color="#136ec9"/>
      <stop offset=".37" stop-color="#459ae3"/>
      <stop offset=".62" stop-color="#72b9ee"/>
      <stop offset=".68" stop-color="#81c3f1"/>
      <stop offset=".8" stop-color="#9bd6f6"/>
      <stop offset=".91" stop-color="#abe2f9"/>
      <stop offset="1" stop-color="#b1e6fb"/>
    </linearGradient>
    <linearGradient id="Degradado_sin_nombre_5" data-name="Degradado sin nombre 5" x1="-398.85" y1="112.24" x2="-397.89" y2="112.24" gradientTransform="translate(-1813.35 -4409.45) rotate(-97.33) scale(11.65)" gradientUnits="userSpaceOnUse">
      <stop offset="0" stop-color="#003391"/>
      <stop offset="0" stop-color="#003391"/>
      <stop offset=".05" stop-color="#003592"/>
      <stop offset=".54" stop-color="#084ea6"/>
      <stop offset="1" stop-color="#084ea6"/>
    </linearGradient>
    <linearGradient id="Degradado_sin_nombre_6" data-name="Degradado sin nombre 6" x1="-328.5" y1="110.1" x2="-327.54" y2="110.1" gradientTransform="translate(4535.76 -1592.89) rotate(14.98) scale(11.9 24.62) skewX(.25)" gradientUnits="userSpaceOnUse">
      <stop offset="0" stop-color="#1771cc"/>
      <stop offset=".84" stop-color="#479ce2"/>
      <stop offset="1" stop-color="#479ce2"/>
    </linearGradient>
    <linearGradient id="Degradado_sin_nombre_7" data-name="Degradado sin nombre 7" x1="-362.61" y1="98.22" x2="-361.65" y2="98.22" gradientTransform="translate(-5685.96 -36376.83) rotate(-81.48) scale(97.2 113.06) skewX(.05)" gradientUnits="userSpaceOnUse">
      <stop offset="0" stop-color="#063f8f"/>
      <stop offset=".31" stop-color="#0c5ab4"/>
      <stop offset=".51" stop-color="#3b8adb"/>
      <stop offset=".77" stop-color="#90c5f6"/>
      <stop offset="1" stop-color="#c8e1fb"/>
    </linearGradient>
  </defs>
  <path class="st2" d="M474.59,54.93c0-.95.29-1.9.76-2.76.57-.76,1.34-1.52,2.47-2,1.05-.57,2.37-.76,3.9-.76s2.95.19,4.37.66c1.42.57,2.66,1.14,3.61,1.81.47.38.86.57,1.14.57.38,0,.66-.1.95-.38l.95-.95c.38-.47.57-.76.57-1.14,0-.47-.19-.76-.57-1.05-1.42-1.24-3.14-2.19-5.05-2.86-2-.66-3.9-.95-5.9-.95-2.47,0-4.66.47-6.37,1.34-1.81.95-3.14,2.19-4,3.61-.86,1.52-1.34,3.14-1.34,4.85,0,5.14,3.71,8.66,11.04,10.66,2.19.57,4,1.24,5.33,1.71,1.24.57,2.19,1.24,2.95,2.1.66.76,1.05,1.81,1.05,3.05s-.38,2.37-1.05,3.42-1.61,1.81-2.86,2.37c-1.34.57-2.66.86-4.28.86-1.9,0-3.81-.29-5.71-1.05-1.9-.66-3.52-1.61-4.95-2.66-.38-.29-.76-.47-1.05-.47-.38,0-.66.19-1.05.57l-.66.95c-.29.38-.47.66-.47.95,0,.47.19.76.47,1.05,1.81,1.52,3.81,2.76,6.18,3.61,2.37.95,4.76,1.34,7.32,1.34,2.37,0,4.57-.47,6.47-1.42,1.9-1.05,3.42-2.37,4.47-4,1.05-1.71,1.52-3.52,1.52-5.61s-.57-3.81-1.61-5.23c-1.14-1.34-2.47-2.47-4.19-3.33-1.71-.76-3.81-1.52-6.18-2.19-3.05-.86-5.13-1.81-6.37-2.86-1.24-.95-1.9-2.29-1.9-3.81h.03Z"/>
  <path class="st2" d="M324.06,45.61c-.76,0-1.24.29-1.24,1.14v34.63c0,.86.47,1.24,1.24,1.24h7.99c.86,0,1.24-.38,1.24-1.24v-17.23c0-2,.38-3.71,1.14-5.13.66-1.52,1.61-2.57,2.86-3.33,1.14-.66,2.37-1.05,3.71-1.05s2.76.38,4.18,1.24c.29.1.47.19.76.19.38,0,.66-.29.95-.66l3.52-6.66c.1-.19.19-.47.19-.66,0-.38-.29-.76-.66-1.05-2.47-1.42-4.95-2.1-7.42-2.1-2.1,0-3.9.38-5.52,1.34s-2.95,2.19-3.9,3.81l-1.52-3.61c-.19-.66-.66-.86-1.42-.86h-6.08v-.02Z"/>
  <path class="st2" d="M316.44,54.27c-1.52-2.95-3.71-5.23-6.47-6.85-2.86-1.71-6.18-2.47-9.99-2.47s-6.76.86-9.61,2.57c-2.76,1.81-4.95,4.1-6.57,7.04-1.52,2.95-2.37,6.18-2.37,9.71s.86,6.76,2.57,9.71c1.61,2.95,3.9,5.33,6.85,6.95,2.95,1.81,6.28,2.66,9.99,2.66,2.37,0,4.66-.38,6.76-1.14,2.1-.66,4-1.71,5.71-3.05.29-.29.47-.57.47-.95,0-.19-.1-.47-.29-.76l-3.81-5.33c-.29-.38-.57-.57-.86-.57s-.57.1-.86.29c-.95.76-2,1.34-3.14,1.71-1.05.38-2.29.57-3.61.57-2.1,0-3.9-.57-5.52-1.81-1.71-1.14-2.86-2.66-3.52-4.76h25.02c.76,0,1.24-.38,1.34-1.14,0-.76.1-1.61.1-2.37,0-3.71-.76-7.04-2.19-9.99h0ZM295.13,55.5c1.42-1.14,3.14-1.71,5.14-1.71s3.71.57,5.13,1.61c1.34,1.14,2.37,2.66,2.86,4.76h-16.18c.66-2,1.61-3.61,3.05-4.66h0Z"/>
  <path class="st2" d="M360.02,40.66c0-.95-.47-1.42-1.42-1.42h-1.81c-.95,0-1.42.47-1.42,1.42v40.54c0,.47.19.76.38,1.05.29.29.66.38,1.05.38h24.83c1.05,0,1.52-.47,1.52-1.42v-1.61c0-1.05-.47-1.52-1.52-1.52h-21.6v-37.41Z"/>
  <path class="st2" d="M402.75,45.14c-3.33,0-6.37.86-9.04,2.47-2.76,1.81-4.95,4.1-6.57,6.95-1.52,2.95-2.37,6.18-2.37,9.71s.86,6.76,2.37,9.61c1.61,2.95,3.81,5.23,6.47,6.95,2.76,1.71,5.81,2.57,9.13,2.57,2.19,0,4.28-.38,6.18-1.24,1.9-.76,3.61-1.9,5.05-3.33,1.52-1.34,2.28-2.86,2.47-4.57v6.95c0,.47.19.86.38,1.05.29.29.66.38,1.05.38h1.61c.38,0,.76-.1,1.05-.38s.38-.57.38-1.05v-34.06c0-.95-.47-1.42-1.42-1.42h-1.61c-.86,0-1.34.47-1.42,1.42v6.95c-.66-2.57-2.29-4.66-4.85-6.37-2.66-1.71-5.61-2.57-8.85-2.57v-.03ZM395.99,51.41c2-1.24,4.28-1.9,6.76-1.9s4.85.66,6.95,1.9c2.1,1.34,3.81,3.14,5.05,5.33,1.14,2.29,1.81,4.85,1.81,7.52s-.66,5.23-1.81,7.52c-1.24,2.19-2.95,4-5.05,5.23-2.1,1.34-4.37,1.9-6.95,1.9s-4.76-.57-6.76-1.9c-2.1-1.24-3.61-3.05-4.85-5.23-1.14-2.29-1.71-4.76-1.71-7.52s.57-5.23,1.71-7.52c1.24-2.19,2.76-4,4.85-5.33Z"/>
  <path class="st2" d="M434.14,35.9c0-.95-.47-1.42-1.42-1.42h-1.71c-.95,0-1.42.47-1.42,1.42v45.29c0,.95.47,1.42,1.42,1.42h1.52c.47,0,.76-.1,1.05-.38.29-.19.47-.57.47-1.05v-6.95c.19,1.71.95,3.24,2.37,4.57,1.52,1.42,3.24,2.57,5.14,3.33,1.9.86,3.9,1.24,6.18,1.24,3.23,0,6.28-.86,9.04-2.57s4.95-4,6.47-6.95c1.61-2.95,2.37-6.18,2.37-9.61s-.76-6.76-2.37-9.61c-1.52-2.95-3.71-5.23-6.47-7.04-2.76-1.61-5.81-2.47-9.04-2.47s-6.18.76-8.76,2.47c-2.57,1.61-4.19,3.71-4.85,6.28v-17.99.03ZM447.65,49.51c2.47,0,4.76.66,6.85,1.9,2,1.34,3.61,3.14,4.85,5.33,1.14,2.29,1.71,4.76,1.71,7.52s-.57,5.23-1.71,7.52c-1.24,2.19-2.76,4-4.85,5.23-2,1.34-4.28,1.9-6.76,1.9s-4.95-.57-7.04-1.9c-2.1-1.24-3.71-3.05-4.95-5.23-1.14-2.29-1.81-4.76-1.81-7.52s.66-5.23,1.81-7.52c1.24-2.19,2.86-4,4.95-5.33,2.1-1.24,4.47-1.9,6.95-1.9h0Z"/>
  <path class="st2" d="M192.28,54.27c-1.52-2.95-3.71-5.23-6.47-6.85-2.86-1.71-6.18-2.47-9.99-2.47s-6.76.86-9.61,2.57c-2.86,1.81-4.95,4.1-6.57,7.04-1.52,2.95-2.29,6.18-2.29,9.71s.76,6.76,2.47,9.71c1.61,2.95,3.9,5.33,6.85,6.95,2.95,1.81,6.28,2.66,9.99,2.66,2.37,0,4.66-.38,6.76-1.14,2.1-.66,4-1.71,5.71-3.05.29-.29.47-.57.47-.95,0-.19-.1-.47-.29-.76l-3.81-5.33c-.29-.38-.57-.57-.86-.57s-.57.1-.86.29c-.95.76-2,1.34-3.14,1.71-1.05.38-2.29.57-3.61.57-2.1,0-3.9-.57-5.52-1.81-1.71-1.14-2.86-2.66-3.52-4.76h25.02c.76,0,1.24-.38,1.34-1.14,0-.76.1-1.61.1-2.37,0-3.71-.76-7.04-2.19-9.99h0ZM170.96,55.5c1.42-1.14,3.14-1.71,5.14-1.71s3.71.57,5.13,1.61c1.34,1.14,2.37,2.66,2.86,4.76h-16.18c.66-2,1.61-3.61,3.05-4.66Z"/>
  <path class="st2" d="M217.88,44.94c-3.9,0-7.13,1.14-9.8,3.61l-.86-2.1c-.29-.66-.76-.86-1.42-.86h-5.9c-.76,0-1.24.29-1.24,1.14v45.57c0,.76.47,1.24,1.24,1.24h7.99c.86,0,1.24-.47,1.24-1.24v-11.61c2.37,1.81,5.33,2.76,8.76,2.76s6.76-.86,9.61-2.57c2.95-1.81,5.33-4.1,7.04-7.13,1.71-2.95,2.57-6.18,2.57-9.71s-.86-6.66-2.57-9.61-4.1-5.23-7.04-6.95c-2.95-1.71-6.18-2.57-9.61-2.57h0ZM222.25,56.08c1.34.86,2.37,1.9,3.23,3.42.76,1.42,1.14,2.95,1.14,4.76s-.38,3.33-1.14,4.76c-.76,1.34-1.81,2.47-3.23,3.24-1.34.86-2.86,1.24-4.57,1.24s-3.33-.38-4.66-1.24c-1.42-.76-2.47-1.9-3.33-3.24-.76-1.42-1.24-3.05-1.24-4.76,0-1.81.38-3.33,1.24-4.76.76-1.42,1.9-2.57,3.23-3.42,1.42-.76,2.95-1.24,4.66-1.24s3.24.47,4.66,1.24Z"/>
  <path class="st2" d="M260.5,44.94c-3.9,0-7.13,1.14-9.8,3.61l-.86-2.1c-.29-.66-.76-.86-1.42-.86h-5.9c-.76,0-1.24.29-1.24,1.14v45.57c0,.76.47,1.24,1.24,1.24h7.99c.86,0,1.24-.47,1.24-1.24v-11.61c2.37,1.81,5.33,2.76,8.76,2.76s6.66-.86,9.61-2.57c2.95-1.81,5.33-4.1,7.04-7.13,1.71-2.95,2.57-6.18,2.57-9.71s-.86-6.66-2.57-9.61-4.1-5.23-7.04-6.95c-2.95-1.71-6.18-2.57-9.61-2.57h0ZM260.31,73.48c-1.71,0-3.33-.38-4.66-1.24-1.42-.76-2.47-1.9-3.33-3.24-.76-1.42-1.24-3.05-1.24-4.76,0-1.81.38-3.33,1.24-4.76.76-1.42,1.9-2.57,3.24-3.42,1.42-.76,2.95-1.24,4.66-1.24s3.24.47,4.57,1.24c1.42.86,2.47,1.9,3.33,3.42.76,1.42,1.14,2.95,1.14,4.76s-.38,3.33-1.14,4.76c-.76,1.34-1.9,2.47-3.23,3.24-1.34.86-2.95,1.24-4.57,1.24h0Z"/>
  <path class="st2" d="M154.03,46.56c-1.24-2.19-3.05-3.9-5.42-5.13-2.37-1.24-5.05-1.9-8.18-1.9h-16.55c-.86,0-1.24.38-1.24,1.24v40.62c0,.86.38,1.24,1.24,1.24h8.57c.86,0,1.24-.38,1.24-1.24v-12.28h6.85c3.24,0,6-.66,8.28-1.9,2.37-1.24,4.1-3.05,5.33-5.33,1.24-2.29,1.9-4.85,1.9-7.9,0-2.76-.76-5.23-2-7.42h0ZM133.67,49.51h6c1.05,0,1.9.19,2.76.57.76.38,1.34.95,1.81,1.61.47.76.76,1.52.76,2.37,0,.95-.29,1.81-.76,2.57-.47.76-1.05,1.34-1.9,1.81-.86.38-1.61.66-2.66.66h-6v-9.61.02Z"/>
  <path class="st7" d="M27.78,25.84c-22.45,10.31-16.1,41.97-7.99,61.27,5.17,13.8,15.24,23.83,30.92,26.36-20.54-18.38-31.11-73.35,1.61-84.11-7.35-4.93-15.9-6.45-24.55-3.52Z"/>
  <path class="st4" d="M61.47,12.52c-2.29,3.51-3.64,8.09-4.47,11.99-.24,1.59-.47,2.85-.47,4.47,1.88-.24,4.06.05,5.81.29-.9-10.63,7.44-28.36,19.03-20.36,2.98-10.22-13.15-6.51-19.89,3.61h0Z"/>
  <path class="st6" d="M56.51,28.99c0-1.63.23-2.88.47-4.47-4.57-2.24-9.43-2.02-13.7.66,3.19.91,6.17,2.31,9.04,4.19,1.49-.21,2.78-.4,4.18-.38h0Z"/>
  <path class="st3" d="M58.33,30.22c-39.37,2.74-25.24,73.73-2.86,83.82,2.8.02,5.28.33,8.18.19-14.41-14.68,4.66-37.53,9.13-53.09,6.02-15.59,2.73-31.36-14.46-30.92Z"/>
  <path class="st1" d="M67.37,25.65c-.1.1-.19.19-.29.19,0,1.61,0,3.02.29,4.66.95.38,1.9.76,2.76,1.24,4.42-3.25,9.79-5.66,14.28-5.42-3.31-2.33-6.24-3.13-9.23-2.86-3.35.37-6.93,1.43-7.81,2.19h0Z"/>
  <path class="st0" d="M67.08,27.28c-.28-6.3,2.93-17.16,11.04-16.65,1.34-.13,2.52-.55,3.24-1.71-11.59-7.99-19.93,9.72-19.03,20.36,1.75.24,3.36.65,5.05,1.24-.2-1.14-.25-2.17-.29-3.24Z"/>
  <path class="st5" d="M70.13,31.75c13.78,11.23,6.57,25.44-1.9,45.01-6.86,14.97-14.9,36.02,1.33,36.92,22.07-1.02,27.51-29.31,32.73-49.38,6.04-25.71-9.86-48.77-32.16-32.54h0Z"/>
</svg>